<svg width="796" height="255" viewBox="0 0 796 255" fill="none" xmlns="http://www.w3.org/2000/svg">
<path d="M275.006 76.5983C289.771 76.9967 304.661 76.3346 319.43 76.6862C327.5 76.8796 335.811 79.6159 342.131 84.6549C355.794 95.5475 357.089 119.202 346.287 132.444C339.309 140.999 330.493 143.565 319.995 144.626C312.279 144.772 304.317 144.714 296.578 144.755L296.527 178.083C289.202 177.825 282.322 177.913 275 178.018C275.851 145.669 275.032 109.264 275.006 76.5983ZM296.582 127.657C306.899 127.739 318.403 129.286 326.542 122.946C328.927 119.84 331.017 116.548 331.182 112.546C332.088 90.5729 310.383 93.7487 296.485 93.7487L296.582 127.657Z" fill="#233952"/>
<path d="M389.626 76.7681C404.053 76.8853 432.274 75.1743 445.165 78.6138C472.225 85.8267 476.978 124.61 449.64 138.637C456.827 151.903 464.148 165.098 471.602 178.217C464.38 177.913 456.142 178.112 448.841 178.135L447.643 177.954C445.208 175.709 430.458 147.092 427.68 141.913L411.313 141.877C411.178 153.848 411.345 166.129 411.374 178.124C404.416 177.919 396.525 178.124 389.497 178.153C390.398 146.02 389.512 109.335 389.626 76.7681ZM411.348 124.809C421.022 124.879 433.178 126.286 440.875 120.532C451.947 107.008 441.713 92.6294 425.591 93.8599C421.41 94.1821 415.481 93.8423 411.105 93.8833C411.605 103.657 411.349 114.924 411.348 124.809Z" fill="#233952"/>
<path d="M507.606 76.6181C514.796 76.6709 521.986 76.6591 529.176 76.5829C528.621 109.94 529.054 144.663 529.223 178.079C523.006 177.669 514.025 177.968 507.602 177.997L507.606 76.6181Z" fill="#233952"/>
<path d="M603.181 75.3417C625.556 72.9686 643.017 82.9354 646.332 105.922C639.568 105.816 632.231 106.015 625.423 106.068C624.318 102.734 623.86 100.971 621.472 98.2694C615.373 91.3788 599.791 90.5701 593.236 97.1971C591.039 99.4354 589.907 102.506 590.126 105.635C590.332 108.265 592.258 111.57 594.452 112.672C609.421 119.978 625.755 118.226 639.247 129.471C650.621 138.951 649.621 157.994 640.171 168.459C632.124 177.365 619.141 179.322 607.494 179.662C583.057 179.181 568.327 171.26 565.223 146.064L586.466 146.017C587.482 150.219 588.33 153.224 591.65 156.418C599.015 163.502 615.243 164.334 622.377 156.611C624.124 154.724 625.704 150.781 625.15 148.185C622.615 137.058 604.155 135.324 593.072 132.769C570.71 127.619 560.422 108.558 573.902 88.5135C579.628 79.994 592.352 76.4315 603.181 75.3417Z" fill="#233952"/>
<path d="M768.424 76.5624C777.355 76.7264 786.286 76.7206 795.216 76.5448C794.531 109.709 795.122 144.818 795.122 178.129C788.049 177.771 781.264 177.906 774.19 178.082L774.196 133.433L774.278 109.603C765.389 132.215 756.282 154.744 746.959 177.18C742.036 177.426 737.29 177.273 732.367 177.168C725.828 162.76 719.95 147.654 713.82 133.047C710.638 125.453 707.667 117.244 704.075 109.902C705.247 129.367 704.433 157.867 704.438 178.029C698.297 177.625 690.128 177.9 683.829 177.953C682.903 144.683 684.479 110.037 683.518 76.5331C692.132 76.8437 701.649 76.6561 710.328 76.6561C713.469 83.0429 717.219 92.6522 720.055 99.3553L739.692 145.844C749.004 122.641 758.579 99.5487 768.424 76.5624Z" fill="#233952"/>
<path d="M116.631 50.6715C117.168 49.2932 126.311 33.3348 127.375 31.6531C133.188 22.471 139.785 8.68033 145.755 0C151.465 8.58233 159.718 24.0819 165.01 33.3486L202.234 98.4983L241.272 166.661C246.958 176.578 255.974 191.178 260.827 200.999C266.835 210.086 273.173 222.7 278.863 232.279C281.407 236.565 289.582 250.509 291 254.133L290.772 254.543C280.044 255.389 262.629 254.802 251.293 254.798L176.201 254.791H100.656C90.0879 254.791 71.7286 255.353 61.8218 254.598C57.7561 255.082 0.677359 254.838 0 254.46L0.292155 254.086C2.62855 248.675 11.1232 234.766 14.4044 229.068L40.678 183.104L89.9803 97.0319C98.7259 81.7555 107.593 65.7074 116.631 50.6715ZM161.925 178.743C157.14 169.86 149.91 158.913 145.882 150.196L135.392 168.441C133.843 171.146 131.135 176.184 129.438 178.626L149.231 178.593C152.312 178.562 159.304 178.239 161.925 178.743Z" fill="#F5771C"/>
<path d="M116.631 50.6715C117.168 49.2932 126.311 33.3348 127.375 31.6531C133.188 22.471 139.785 8.68033 145.755 0C145.592 19.528 145.547 39.0564 145.62 58.5851C145.624 69.9838 145.289 83.5615 145.709 94.7173C150.572 104.129 156.374 113.268 161.401 122.663C156.412 131.836 150.994 141.036 145.882 150.196L135.392 168.441C133.843 171.146 131.135 176.184 129.438 178.626L149.231 178.593C152.312 178.562 159.304 178.239 161.925 178.743C165.374 184.195 168.759 190.288 171.94 195.926C173.59 198.85 176.451 203.431 177.83 206.269L177.422 206.56C166.467 211.633 153.47 216.643 142.189 221.259L94.7855 240.772L72.9026 249.69C69.8378 250.953 64.3569 253.024 61.8218 254.598C57.7561 255.082 0.677359 254.838 0 254.46L0.292155 254.086C2.62855 248.675 11.1232 234.766 14.4044 229.068L40.678 183.104L89.9803 97.0319C98.7259 81.7555 107.593 65.7074 116.631 50.6715Z" fill="#327FED"/>
<path d="M116.631 50.6715C117.168 49.2932 126.311 33.3348 127.375 31.6531C133.188 22.471 139.785 8.68033 145.755 0C145.592 19.528 145.547 39.0564 145.62 58.5851C145.623 69.9838 145.289 83.5615 145.709 94.7173C150.572 104.129 156.374 113.268 161.401 122.663C156.412 131.836 150.994 141.036 145.882 150.196L135.392 168.441C133.843 171.146 131.135 176.184 129.438 178.626C119.284 178.445 108.487 178.877 98.4542 178.448C97.0967 179.386 93.4413 186.271 92.4333 188.056C92.5692 187.48 92.698 186.903 92.8197 186.324C98.1283 160.236 102.694 132.528 107.556 106.207L113.609 73.7533C114.26 70.2718 118.147 52.9872 116.631 50.6715Z" fill="#3D5EAE"/>
<path d="M98.4542 178.448C98.7817 175.526 140.589 104.296 145.709 94.7173C150.572 104.129 156.374 113.268 161.401 122.663C156.412 131.836 150.994 141.036 145.882 150.196L135.392 168.441C133.843 171.146 131.135 176.184 129.438 178.626C119.284 178.445 108.487 178.877 98.4542 178.448Z" fill="#14AC92"/>
<path d="M0.292155 254.086C2.13653 254.051 18.2691 244.043 20.7582 242.571L64.6267 216.604C68.4482 214.348 80.7797 206.422 84.137 206.497C114.436 207.142 147.4 205.423 177.422 206.56C166.467 211.633 153.47 216.643 142.189 221.259L94.7855 240.772L72.9027 249.69C69.8378 250.953 64.3569 253.024 61.8218 254.598C57.7561 255.082 0.677359 254.838 0 254.46L0.292155 254.086Z" fill="#0B7885"/>
<path d="M177.83 206.269C180.474 206.58 185.846 206.422 188.691 206.418C195.702 206.355 202.713 206.367 209.724 206.45L268.186 240.949C271.61 242.976 288.609 253.586 291 254.133L290.772 254.543C280.044 255.389 262.629 254.802 251.293 254.798L176.201 254.791H100.656C90.0879 254.791 71.7286 255.353 61.8218 254.598C64.3569 253.024 69.8378 250.953 72.9026 249.69L94.7855 240.772L142.189 221.259C153.47 216.643 166.467 211.633 177.422 206.56L177.83 206.269Z" fill="#14AC92"/>
<path d="M161.627 122.821C167.641 126.963 179.536 137.124 185.692 142.053L234.532 181.251L251.203 194.69C253.3 196.355 258.447 201.078 260.827 200.999C266.835 210.086 273.173 222.7 278.862 232.279C281.407 236.565 289.582 250.509 291 254.133C288.609 253.586 271.61 242.976 268.186 240.949L209.724 206.45C207.688 203.258 205.635 199.83 203.796 196.52C190.094 171.87 174.999 147.62 161.627 122.821Z" fill="#EB452B"/>
</svg>
