<svg width="435" height="380" viewBox="0 0 435 380" fill="none" xmlns="http://www.w3.org/2000/svg">
<path d="M174.054 75.4406C174.856 73.3887 188.5 49.6295 190.089 47.1258C198.763 33.4553 208.609 12.9234 217.518 0C226.039 12.7775 238.355 35.8535 246.252 49.65L301.804 146.646L360.062 248.128C368.548 262.892 382.002 284.629 389.246 299.251C398.211 312.78 407.669 331.56 416.161 345.821C419.958 352.202 432.159 372.962 434.274 378.359L433.934 378.968C417.925 380.228 391.935 379.355 375.017 379.349L262.954 379.337H150.214C134.443 379.337 107.044 380.175 92.2599 379.05C86.1924 379.771 1.01086 379.407 0 378.845L0.435998 378.288C3.92272 370.232 16.5997 349.525 21.4964 341.04L60.7059 272.609L134.282 144.463C147.334 121.719 160.566 97.8264 174.054 75.4406ZM241.649 266.116C234.508 252.891 223.718 236.593 217.707 223.614L202.052 250.778C199.741 254.805 195.699 262.305 193.167 265.942L222.704 265.893C227.303 265.846 237.737 265.366 241.649 266.116Z" fill="#F5771C"/>
<path d="M174.054 75.4406C174.856 73.3887 188.5 49.6295 190.089 47.1258C198.763 33.4553 208.609 12.9234 217.518 0C217.274 29.0736 217.208 58.1478 217.316 87.2226C217.321 104.193 216.821 124.408 217.449 141.017C224.707 155.03 233.366 168.635 240.866 182.623C233.422 196.28 225.337 209.978 217.707 223.614L202.052 250.778C199.741 254.805 195.699 262.305 193.167 265.942L222.704 265.893C227.303 265.846 237.737 265.366 241.649 266.116C246.797 274.233 251.847 283.305 256.595 291.698C259.057 296.052 263.326 302.872 265.384 307.097L264.776 307.53C248.428 315.083 229.031 322.542 212.196 329.415L141.453 358.466L108.796 371.743C104.223 373.624 96.0431 376.706 92.2599 379.05C86.1924 379.771 1.01086 379.407 0 378.845L0.435998 378.288C3.92272 370.232 16.5997 349.525 21.4964 341.04L60.7059 272.609L134.282 144.463C147.334 121.719 160.566 97.8264 174.054 75.4406Z" fill="#327FED"/>
<path d="M174.054 75.4406C174.856 73.3887 188.5 49.6295 190.089 47.1258C198.763 33.4553 208.609 12.9234 217.518 0C217.274 29.0736 217.208 58.1478 217.316 87.2226C217.321 104.193 216.821 124.408 217.449 141.017C224.707 155.03 233.366 168.635 240.866 182.623C233.422 196.28 225.337 209.978 217.707 223.614L202.052 250.778C199.741 254.805 195.699 262.305 193.167 265.942C178.013 265.673 161.9 266.315 146.928 265.676C144.902 267.073 139.447 277.324 137.943 279.982C138.146 279.124 138.338 278.264 138.52 277.402C146.442 238.562 153.256 197.31 160.511 158.123L169.544 109.805C170.517 104.622 176.317 78.8883 174.054 75.4406Z" fill="#3D5EAE"/>
<path d="M146.928 265.676C147.417 261.326 209.808 155.278 217.449 141.017C224.707 155.03 233.366 168.635 240.866 182.623C233.422 196.28 225.337 209.978 217.707 223.614L202.052 250.778C199.741 254.805 195.699 262.305 193.167 265.942C178.013 265.673 161.9 266.315 146.928 265.676Z" fill="#14AC92"/>
<path d="M0.435998 378.288C3.18846 378.236 27.2638 363.335 30.9785 361.144L96.4457 322.484C102.149 319.126 120.552 307.325 125.562 307.437C170.778 308.398 219.972 305.837 264.777 307.53C248.428 315.083 229.031 322.542 212.196 329.415L141.453 358.466L108.796 371.743C104.223 373.624 96.0431 376.706 92.2599 379.05C86.1924 379.771 1.01086 379.407 0 378.845L0.435998 378.288Z" fill="#0B7885"/>
<path d="M265.384 307.097C269.33 307.56 277.347 307.325 281.594 307.32C292.056 307.226 302.519 307.243 312.982 307.366L400.227 358.73C405.337 361.747 430.705 377.544 434.274 378.359L433.934 378.968C417.925 380.228 391.935 379.355 375.017 379.349L262.954 379.337H150.214C134.443 379.337 107.044 380.175 92.2599 379.05C96.0431 376.706 104.223 373.624 108.796 371.743L141.453 358.466L212.196 329.415C229.031 322.542 248.428 315.083 264.776 307.531L265.384 307.097Z" fill="#14AC92"/>
<path d="M241.204 182.858C250.179 189.025 267.931 204.153 277.117 211.491L350.004 269.851L374.883 289.859C378.012 292.337 385.694 299.368 389.246 299.251C398.211 312.78 407.669 331.56 416.161 345.821C419.958 352.202 432.159 372.962 434.274 378.359C430.705 377.544 405.337 361.747 400.227 358.73L312.982 307.366C309.944 302.614 306.88 297.511 304.135 292.583C283.686 255.884 261.16 219.78 241.204 182.858Z" fill="#EB452B"/>
</svg>
