<svg width="1022" height="255" viewBox="0 0 1022 255" fill="none" xmlns="http://www.w3.org/2000/svg">
<path d="M405.718 76.5983C420.483 76.9967 435.372 76.3346 450.142 76.6862C458.212 76.8796 466.522 79.6159 472.843 84.6549C486.506 95.5475 487.801 119.202 476.998 132.444C470.02 140.999 461.205 143.565 450.706 144.626C442.99 144.772 435.028 144.714 427.29 144.755L427.239 178.083C419.914 177.825 413.034 177.913 405.712 178.018C406.563 145.669 405.743 109.264 405.718 76.5983ZM427.294 127.657C437.611 127.739 449.115 129.286 457.254 122.946C459.639 119.84 461.728 116.548 461.894 112.546C462.8 90.5729 441.095 93.7487 427.197 93.7487L427.294 127.657Z" fill="#233952"/>
<path d="M520.337 76.7681C534.765 76.8853 562.986 75.1743 575.877 78.6138C602.936 85.8267 607.69 124.61 580.351 138.637C587.539 151.903 594.86 165.098 602.314 178.217C595.092 177.913 586.854 178.112 579.553 178.135L578.355 177.954C575.92 175.709 561.17 147.092 558.392 141.913L542.024 141.877C541.89 153.848 542.057 166.129 542.086 178.124C535.128 177.919 527.237 178.124 520.209 178.153C521.11 146.02 520.224 109.335 520.337 76.7681ZM542.059 124.809C551.734 124.879 563.889 126.286 571.587 120.532C582.658 107.008 572.425 92.6294 556.303 93.8599C552.122 94.1821 546.193 93.8423 541.816 93.8833C542.317 103.657 542.061 114.924 542.059 124.809Z" fill="#233952"/>
<path d="M638.318 76.6181C645.508 76.6709 652.698 76.6591 659.887 76.5829C659.332 109.94 659.766 144.663 659.935 178.079C653.718 177.669 644.737 177.968 638.314 177.997L638.318 76.6181Z" fill="#233952"/>
<path d="M733.893 75.3417C756.268 72.9686 773.729 82.9354 777.044 105.922C770.28 105.816 762.943 106.015 756.134 106.068C755.03 102.734 754.571 100.971 752.183 98.2694C746.084 91.3788 730.502 90.5701 723.947 97.1971C721.751 99.4354 720.619 102.506 720.838 105.635C721.043 108.265 722.97 111.57 725.163 112.672C740.133 119.978 756.467 118.226 769.959 129.471C781.333 138.951 780.333 157.994 770.882 168.459C762.835 177.365 749.853 179.322 738.206 179.662C713.769 179.181 699.039 171.26 695.935 146.064L717.178 146.017C718.194 150.219 719.042 153.224 722.362 156.418C729.727 163.502 745.954 164.334 753.088 156.611C754.836 154.724 756.416 150.781 755.862 148.185C753.327 137.058 734.867 135.324 723.783 132.769C701.421 127.619 691.134 108.558 704.613 88.5135C710.339 79.994 723.064 76.4315 733.893 75.3417Z" fill="#233952"/>
<path d="M899.136 76.5624C908.067 76.7264 916.997 76.7206 925.928 76.5448C925.242 109.709 925.834 144.818 925.834 178.129C918.761 177.771 911.975 177.906 904.902 178.082L904.908 133.433L904.99 109.603C896.1 132.215 886.994 154.744 877.671 177.18C872.748 177.426 868.001 177.273 863.079 177.168C856.539 162.76 850.662 147.654 844.532 133.047C841.35 125.453 838.379 117.244 834.787 109.902C835.959 129.367 835.144 157.867 835.15 178.029C829.009 177.625 820.84 177.9 814.54 177.953C813.614 144.683 815.191 110.037 814.23 76.5331C822.844 76.8437 832.361 76.6561 841.039 76.6561C844.18 83.0429 847.931 92.6522 850.767 99.3553L870.404 145.844C879.716 122.641 889.291 99.5487 899.136 76.5624Z" fill="#233952"/>
<path d="M138.159 50.6715C138.795 49.2932 149.626 33.3348 150.887 31.6531C157.772 22.471 165.587 8.68033 172.659 0C179.423 8.58233 189.199 24.0819 195.468 33.3486L239.563 98.4983L285.807 166.661C292.542 176.578 303.222 191.178 308.971 200.999C316.088 210.086 323.596 222.7 330.336 232.279C333.35 236.565 343.035 250.509 344.714 254.133L344.444 254.543C331.736 255.389 311.106 254.802 297.678 254.798L208.725 254.791H119.235C106.717 254.791 84.9685 255.353 73.2331 254.598C68.4169 255.082 0.802388 254.838 0 254.46L0.346082 254.086C3.11374 248.675 13.1764 234.766 17.0632 229.068L48.1865 183.104L106.589 97.0319C116.949 81.7555 127.453 65.7074 138.159 50.6715ZM191.814 178.743C186.145 169.86 177.581 158.913 172.81 150.196L160.383 168.441C158.548 171.146 155.34 176.184 153.33 178.626L176.776 178.593C180.426 178.562 188.709 178.239 191.814 178.743Z" fill="#F5771C"/>
<path d="M138.159 50.6715C138.795 49.2932 149.626 33.3348 150.887 31.6531C157.772 22.471 165.587 8.68033 172.659 0C172.466 19.528 172.413 39.0564 172.499 58.5851C172.503 69.9838 172.106 83.5615 172.605 94.7173C178.365 104.129 185.239 113.268 191.193 122.663C185.283 131.836 178.866 141.036 172.81 150.196L160.383 168.441C158.548 171.146 155.34 176.184 153.33 178.626L176.776 178.593C180.426 178.562 188.709 178.239 191.814 178.743C195.9 184.195 199.909 190.288 203.677 195.926C205.632 198.85 209.02 203.431 210.654 206.269L210.172 206.56C197.194 211.633 181.798 216.643 168.434 221.259L112.281 240.772L86.3593 249.69C82.7287 250.953 76.2361 253.024 73.2331 254.598C68.4169 255.082 0.802388 254.838 0 254.46L0.346082 254.086C3.11374 248.675 13.1764 234.766 17.0632 229.068L48.1865 183.104L106.589 97.0319C116.949 81.7555 127.453 65.7074 138.159 50.6715Z" fill="#327FED"/>
<path d="M138.159 50.6715C138.795 49.2932 149.626 33.3348 150.887 31.6531C157.772 22.471 165.587 8.68033 172.659 0C172.466 19.528 172.413 39.0564 172.499 58.5851C172.503 69.9838 172.106 83.5615 172.605 94.7173C178.365 104.129 185.239 113.268 191.192 122.663C185.283 131.836 178.865 141.036 172.81 150.196L160.383 168.441C158.548 171.146 155.34 176.184 153.33 178.626C141.302 178.445 128.511 178.877 116.627 178.448C115.019 179.386 110.689 186.271 109.495 188.056C109.656 187.48 109.809 186.903 109.953 186.324C116.241 160.236 121.65 132.528 127.409 106.207L134.579 73.7533C135.351 70.2718 139.955 52.9872 138.159 50.6715Z" fill="#3D5EAE"/>
<path d="M116.627 178.448C117.015 175.526 166.539 104.296 172.605 94.7173C178.365 104.129 185.239 113.268 191.193 122.663C185.283 131.836 178.865 141.036 172.81 150.196L160.383 168.441C158.548 171.146 155.34 176.184 153.33 178.626C141.302 178.445 128.511 178.877 116.627 178.448Z" fill="#14AC92"/>
<path d="M0.346082 254.086C2.5309 254.051 21.6412 244.043 24.5898 242.571L76.5557 216.604C81.0826 214.348 95.6902 206.422 99.6673 206.497C135.558 207.142 174.607 205.423 210.172 206.56C197.194 211.633 181.798 216.643 168.434 221.259L112.281 240.772L86.3593 249.69C82.7287 250.953 76.2362 253.024 73.2331 254.598C68.4169 255.082 0.802388 254.838 0 254.46L0.346082 254.086Z" fill="#0B7885"/>
<path d="M210.654 206.269C213.786 206.58 220.15 206.422 223.521 206.418C231.825 206.355 240.131 206.367 248.436 206.45L317.688 240.949C321.745 242.976 341.881 253.586 344.714 254.133L344.444 254.543C331.736 255.389 311.106 254.802 297.678 254.798L208.725 254.791H119.235C106.717 254.791 84.9684 255.353 73.2331 254.598C76.2361 253.024 82.7287 250.953 86.3592 249.69L112.281 240.772L168.434 221.259C181.798 216.643 197.194 211.633 210.172 206.56L210.654 206.269Z" fill="#14AC92"/>
<path d="M191.461 122.821C198.584 126.963 212.676 137.124 219.967 142.053L277.823 181.251L297.571 194.69C300.054 196.355 306.153 201.078 308.971 200.999C316.088 210.086 323.596 222.7 330.336 232.279C333.35 236.565 343.035 250.509 344.714 254.133C341.881 253.586 321.745 242.976 317.688 240.949L248.436 206.45C246.024 203.258 243.592 199.83 241.413 196.52C225.182 171.87 207.301 147.62 191.461 122.821Z" fill="#EB452B"/>
</svg>
