<svg width="82" height="93" viewBox="0 0 82 93" fill="none" xmlns="http://www.w3.org/2000/svg">
<path d="M16.7203 58.4162C15.1455 59.365 13.6364 60.4162 12.0784 61.3919C9.39523 63.072 6.67364 64.6986 3.96997 66.3459C3.14496 66.8485 2.07832 67.6785 1.06131 67.4038C0.740454 67.317 0.484415 67.1216 0.328012 66.8262C0.120947 66.4352 0.116791 65.9543 0.102762 65.5222C-0.0186976 61.7734 -0.100926 26.5104 0.266569 25.6134C0.38608 25.322 0.837883 25.0182 1.13653 24.9292C1.53975 24.8092 2.31605 25.1575 2.67536 25.3315C4.00673 25.976 5.29017 26.8957 6.56361 27.6562C8.43759 28.7754 10.3495 29.8414 12.2058 30.9876C13.7818 31.9608 15.3061 33.0123 16.8882 33.9778C19.3644 35.509 21.8619 37.0055 24.3799 38.4666C25.9484 39.3821 31.4382 42.3717 32.4095 43.4659C32.469 45.0064 32.5437 47.2805 32.388 48.8013C31.2974 49.8956 26.0247 52.8194 24.4133 53.7548C21.8293 55.2756 19.2647 56.8296 16.7203 58.4162Z" fill="#FD5243"/>
<path d="M16.8882 33.9778C19.3644 35.509 21.8619 37.0055 24.3799 38.4666C25.9484 39.3821 31.4382 42.3717 32.4095 43.4659C32.469 45.0064 32.5437 47.2805 32.388 48.8013C31.2974 49.8956 26.0247 52.8194 24.4133 53.7548C21.8293 55.2756 19.2647 56.8296 16.7203 58.4162C16.2679 57.1707 16.4495 51.2811 16.4493 49.6172L16.4525 40.8665C16.4536 39.6891 16.3323 34.7647 16.8882 33.9778Z" fill="#FE745E"/>
<path d="M65.2781 33.8615C67.3022 32.6431 79.5286 24.6382 80.8136 24.9501C81.235 25.0523 81.5772 25.3635 81.7577 25.7533C81.9509 26.1704 81.9164 26.8628 81.9256 27.3202C82.072 34.5757 81.9118 41.8719 81.9132 49.1314L81.9049 61.3784C81.8993 62.9915 82.4555 66.6386 80.9392 67.4643C79.4813 67.527 76.3911 65.3428 74.9849 64.4768L65.3096 58.4319C62.4957 56.8328 59.5086 54.8209 56.6652 53.1709C55.1051 52.2657 50.8454 49.9729 49.7748 48.9052C49.3172 47.8204 49.5361 44.6813 49.5864 43.3813C51.3092 41.9589 54.2356 40.4936 56.2111 39.3409C59.2492 37.5407 62.2717 35.7141 65.2781 33.8615Z" fill="#9D64D9"/>
<path d="M49.5864 43.3813C51.3092 41.9589 54.2356 40.4936 56.2111 39.3409C59.2492 37.5407 62.2717 35.7141 65.2781 33.8615C65.4738 34.9806 65.4264 37.3824 65.4313 38.6075L65.4378 47.0779L65.4588 54.0313C65.4616 55.0862 65.5003 57.467 65.3096 58.4319C62.4957 56.8328 59.5086 54.8209 56.6652 53.1709C55.1051 52.2657 50.8454 49.9729 49.7748 48.9052C49.3172 47.8204 49.5361 44.6813 49.5864 43.3813Z" fill="#C07FF1"/>
<path d="M47.3929 52.5023C48.8107 52.9068 50.7992 54.4713 52.1958 55.2296C56.1747 57.3897 59.6795 59.6231 63.3922 62.2152C68.0513 64.9639 72.7904 67.7163 77.3657 70.6105C77.8481 70.9156 79.0165 71.9319 78.3814 72.7354C74.8959 75.6641 70.5551 77.8442 66.6576 80.1142L53.0287 88.1164C50.9509 89.3384 49.01 90.8603 46.889 92.0242C45.7632 92.642 44.9902 93.3874 43.6937 92.7663C43.1615 92.2413 43.165 90.4527 43.1593 89.7011L43.1748 74.4617C42.975 72.7734 43.0201 55.7439 43.3517 54.957C43.7791 53.943 46.3856 52.846 47.3929 52.5023Z" fill="#FDAA0A"/>
<path d="M47.3929 52.5023C48.8107 52.9068 50.7992 54.4713 52.1958 55.2296C56.1747 57.3897 59.6795 59.6231 63.3922 62.2152C62.1415 63.5761 52.9633 68.6019 50.7783 69.8692C49.1399 70.8195 44.7654 73.6334 43.1748 74.4617C42.975 72.7734 43.0201 55.7439 43.3517 54.957C43.7791 53.943 46.3856 52.846 47.3929 52.5023Z" fill="#FEC84B"/>
<path d="M18.7916 62.1081C22.1378 59.7806 25.253 57.8612 28.8134 55.8749C30.2385 55.0799 32.6417 53.3804 34.0485 52.7978L34.123 52.7664C35.1733 52.3338 37.8515 54.2098 38.7292 54.8542C39.0002 60.6859 38.7538 68.1557 38.7851 74.1327C38.8603 79.5691 38.9937 85.0963 38.7881 90.5273C38.7656 91.1189 38.7392 92.3879 38.2711 92.7769C38.0001 93.0022 37.5766 93.0181 37.2415 92.9768C36.6368 92.9023 36.0558 92.6123 35.5305 92.3155C33.0993 90.9421 30.8658 89.2288 28.4765 87.7846C25.193 85.8001 4.83408 74.491 3.71743 72.8603C3.45022 72.47 3.42203 72.0866 3.51764 71.6372C4.53452 70.2384 11.4008 66.5433 13.1898 65.4688C14.8539 64.4695 17.1015 63.0612 18.7916 62.1081Z" fill="#00AD9B"/>
<path d="M18.7916 62.1081C22.1378 59.7806 25.253 57.8612 28.8134 55.8749C30.2385 55.0799 32.6417 53.3804 34.0485 52.7978L34.123 52.7664C35.1733 52.3338 37.8515 54.2098 38.7292 54.8542C39.0002 60.6859 38.7538 68.1557 38.7851 74.1327C38.2469 74.0289 34.4258 71.7527 33.6636 71.2579C28.8223 68.1148 23.3332 65.6244 18.7916 62.1081Z" fill="#00C5AD"/>
<path d="M43.1766 18.4144L43.1665 7.24799C43.1653 5.8808 42.8826 1.16017 43.6213 0.250446C44.204 -0.0597398 44.6596 -0.0629949 45.2879 0.137675C47.2131 0.752318 50.0062 3.05085 51.9079 4.1641C55.7195 6.39557 77.2939 18.0887 78.28 20.0448C78.4137 20.3099 78.3755 20.6195 78.264 20.8889C78.1267 21.2211 77.9077 21.4762 77.6271 21.695C76.0754 22.9044 74.1627 23.8514 72.4681 24.8609C70.5919 25.9784 68.6854 27.0219 66.7975 28.1164C65.6894 28.7588 64.6282 29.4897 63.4991 30.0934C62.9983 30.4127 62.4285 30.7514 61.9489 31.0964C58.1372 33.8377 53.963 35.9419 49.9679 38.3864C49.1254 38.9019 48.2633 39.4256 47.3127 39.7141C46.235 39.339 44.0521 38.0179 43.2183 37.211C43.0775 35.1294 43.1533 32.4703 43.1549 30.3449L43.1766 18.4144Z" fill="#C07FF1"/>
<path d="M43.1766 18.4144C44.4361 18.9589 45.8595 19.843 47.0533 20.5622C51.4961 23.2385 56.1023 25.6106 60.5672 28.2439C61.346 28.7032 62.8757 29.5172 63.4991 30.0934C62.9983 30.4127 62.4285 30.7514 61.9489 31.0964C58.1372 33.8377 53.963 35.9419 49.9679 38.3864C49.1254 38.9019 48.2633 39.4256 47.3127 39.7141C46.235 39.339 44.0521 38.0179 43.2183 37.211C43.0775 35.1294 43.1533 32.4703 43.1549 30.3449L43.1766 18.4144Z" fill="#9D64D9"/>
<path d="M18.6085 30.1734C17.3 29.3598 15.2289 28.0875 13.9713 27.324C12.5999 26.4915 4.1417 22.0176 3.77226 21.0087C3.63768 20.635 3.65963 20.2225 3.83318 19.8653C4.76406 17.9833 26.9542 6.25637 29.886 4.33379C31.439 3.31546 36.6544 -0.679327 38.3637 0.249017C39.0708 1.14389 38.8386 6.38125 38.835 7.88165L38.8429 18.6138L38.8336 30.6245C38.8349 32.3511 38.9272 35.7617 38.7607 37.3687C37.4875 38.234 35.9059 39.299 34.4128 39.7141C33.1189 39.1358 30.5919 37.4874 29.2926 36.6976L18.6085 30.1734Z" fill="#FD5243"/>
<path d="M38.8429 18.6138L38.8336 30.6245C38.8349 32.3511 38.9272 35.7617 38.7607 37.3687C37.4875 38.234 35.9059 39.299 34.4128 39.7141C33.1189 39.1358 30.5919 37.4874 29.2926 36.6976L18.6085 30.1734C20.4294 28.4703 25.8109 25.9106 28.1809 24.545C29.9277 23.5382 37.5956 18.7099 38.8429 18.6138Z" fill="#FE745E"/>
</svg>
