<svg width="68" height="57" viewBox="0 0 68 57" fill="none" xmlns="http://www.w3.org/2000/svg">
<path d="M27.254 11.3266C27.3795 11.0185 29.516 7.45131 29.7647 7.0754C31.1229 5.02293 32.6646 1.94031 34.0596 0C35.3939 1.9184 37.3223 5.383 38.559 7.45439L47.2574 22.0173L56.3797 37.2536C57.7084 39.4703 59.8152 42.7338 60.9493 44.9292C62.3532 46.9605 63.8342 49.78 65.1637 51.9212C65.7583 52.8792 67.6688 55.9961 68 56.8063L67.9468 56.8978C65.4399 57.0869 61.3705 56.9558 58.7214 56.955L41.1742 56.9532H23.521C21.0515 56.9532 16.7613 57.079 14.4463 56.9101C13.4963 57.0183 0.158283 56.9637 0 56.8793L0.0682699 56.7957C0.614232 55.5861 2.59924 52.4772 3.36597 51.2033L9.50552 40.9291L21.0263 21.6895C23.07 18.2748 25.142 14.6875 27.254 11.3266ZM37.8382 39.9544C36.7199 37.9687 35.0305 35.5217 34.0893 33.5732L31.638 37.6515C31.276 38.2562 30.6432 39.3822 30.2467 39.9282L34.8718 39.9209C35.5918 39.9138 37.2256 39.8417 37.8382 39.9544Z" fill="#F5771C"/>
<path d="M27.254 11.3266C27.3795 11.0185 29.516 7.45131 29.7647 7.0754C31.1229 5.02293 32.6646 1.94031 34.0596 0C34.0215 4.36508 34.0111 8.73024 34.028 13.0955C34.0289 15.6434 33.9506 18.6785 34.0489 21.1721C35.1853 23.276 36.5411 25.3187 37.7156 27.4188C36.5499 29.4693 35.2839 31.5258 34.0893 33.5732L31.638 37.6515C31.276 38.2562 30.6432 39.3822 30.2467 39.9282L34.8718 39.9209C35.5918 39.9138 37.2256 39.8417 37.8382 39.9544C38.6442 41.1731 39.435 42.535 40.1784 43.7952C40.564 44.4489 41.2324 45.4729 41.5547 46.1071L41.4595 46.1722C38.8996 47.3062 35.8625 48.4261 33.2262 49.458L22.1492 53.8196L17.0357 55.8131C16.3195 56.0955 15.0387 56.5582 14.4463 56.9101C13.4963 57.0183 0.158283 56.9637 0 56.8793L0.0682699 56.7957C0.614232 55.5861 2.59924 52.4772 3.36597 51.2033L9.50552 40.9291L21.0263 21.6895C23.07 18.2748 25.142 14.6875 27.254 11.3266Z" fill="#327FED"/>
<path d="M27.254 11.3266C27.3796 11.0185 29.5161 7.45131 29.7647 7.0754C31.1229 5.02293 32.6647 1.94031 34.0597 0C34.0216 4.36508 34.0111 8.73024 34.0281 13.0955C34.0289 15.6434 33.9506 18.6785 34.0489 21.1721C35.1853 23.276 36.5412 25.3187 37.7157 27.4188C36.55 29.4693 35.284 31.5258 34.0894 33.5732L31.6381 37.6515C31.2761 38.2562 30.6432 39.3822 30.2467 39.9282C27.874 39.8878 25.3509 39.9842 23.0065 39.8883C22.6893 40.098 21.8352 41.6371 21.5996 42.0361C21.6314 41.9074 21.6615 41.7782 21.6899 41.6488C22.9304 35.8174 23.9973 29.6238 25.1334 23.7404L26.5479 16.486C26.7001 15.7078 27.6083 11.8442 27.254 11.3266Z" fill="#3D5EAE"/>
<path d="M23.0066 39.8883C23.0831 39.2352 32.8524 23.3132 34.049 21.1721C35.1854 23.276 36.5412 25.3187 37.7157 27.4188C36.55 29.4693 35.284 31.5258 34.0894 33.5732L31.6381 37.6515C31.2761 38.2562 30.6433 39.3822 30.2468 39.9282C27.874 39.8878 25.3509 39.9842 23.0066 39.8883Z" fill="#14AC92"/>
<path d="M0.0682699 56.7957C0.499259 56.7878 4.26906 54.5507 4.85071 54.2217L15.1018 48.4173C15.9948 47.9132 18.8763 46.1414 19.6609 46.1582C26.741 46.3024 34.4439 45.918 41.4595 46.1722C38.8996 47.3062 35.8625 48.4261 33.2262 49.458L22.1492 53.8196L17.0357 55.8131C16.3195 56.0955 15.0387 56.5582 14.4463 56.9101C13.4963 57.0183 0.158283 56.9637 0 56.8793L0.0682699 56.7957Z" fill="#0B7885"/>
<path d="M41.5546 46.1071C42.1725 46.1766 43.4278 46.1414 44.0928 46.1406C45.731 46.1265 47.3694 46.1291 49.0076 46.1476L62.6688 53.8592C63.4689 54.3123 67.4411 56.684 67.9999 56.8063L67.9467 56.8978C65.4399 57.0869 61.3704 56.9558 58.7213 56.955L41.1741 56.9532H23.5209C21.0514 56.9532 16.7613 57.079 14.4463 56.9101C15.0387 56.5582 16.3194 56.0955 17.0356 55.8131L22.1491 53.8196L33.2262 49.458C35.8624 48.4261 38.8995 47.3062 41.4595 46.1722L41.5546 46.1071Z" fill="#14AC92"/>
<path d="M37.7686 27.4541C39.1737 28.3799 41.9535 30.6513 43.3919 31.753L54.8048 40.515L58.7003 43.519C59.1903 43.8911 60.3932 44.9468 60.9493 44.9292C62.3532 46.9605 63.8342 49.78 65.1637 51.9212C65.7583 52.8792 67.6687 55.9961 68 56.8063C67.4412 56.684 63.469 54.3123 62.6688 53.8592L49.0077 46.1476C48.532 45.4342 48.0522 44.6679 47.6224 43.9281C44.4205 38.418 40.8932 32.9975 37.7686 27.4541Z" fill="#EB452B"/>
</svg>
